# xmcd
#
# Track frame offsets: 
#        150
#        16397
#        35895
#        52296
#        77170
#        90586
#        108295
#        128494
#        142069
#        155849
#        201391
#
# Disc length: 4440 seconds
#
# Revision: 29
# Processed by: cddbd v1.5.2PL0 Copyright (c) Steve Scherf et al.
# Submitted via: ExactAudioCopy v1.3
#
DISCID=9e11560b
DTITLE=Joss Stone - The Soul Sessions
DYEAR=2003
DGENRE=Soul
TTITLE0=The Chokin' Kind
TTITLE1=Super Duper Love (Are You Diggin' On Me?) Pt. 1
TTITLE2=Fell In Love With A Boy
TTITLE3=Victim Of A Foolish Heart
TTITLE4=Dirty Man
TTITLE5=Some Kind Of Wonderful
TTITLE6=I've Fallen In Love With You
TTITLE7=I Had A Dream
TTITLE8=All The King's Horses
TTITLE9=For The Love Of You, Pts. 1 and 2
TTITLE10=f
EXTD=YEAR: 2003
EXTT0=
EXTT1=
EXTT2=
EXTT3=
EXTT4=
EXTT5=
EXTT6=
EXTT7=
EXTT8=
EXTT9=
EXTT10=
PLAYORDER=
